<svg xmlns="http://www.w3.org/2000/svg" width="299.79" height="415.726" viewBox="0 0 299.79 415.726">
  <g id="Bunny" transform="translate(-98.92 -35.914)">
    <path id="Path_24" data-name="Path 24" d="M353.51,234.51c20-34.21,26.88-101.71,15.3-150.6-6.62-28-18-44.82-31.21-46.19-9.16-.95-18.23,5.74-26.22,19.34-19.55,33.26-26.6,98.25-16.26,146.85a173,173,0,0,0-104.93,4c8.1-37.46,5.46-89.08-7.91-127.4-9.47-27.15-22.52-42.72-35.81-42.72-9.21,0-17.54,7.59-24.08,21.94-16.45,36.05-16.35,104,.22,151.54,4.29,12.29,9.32,22.2,14.77,29.38-22.87,22.2-36.75,51.29-36.75,83.14,0,69.66,66.34,126.14,148.17,126.14S397,393.42,397,323.76C397,288.9,380.36,257.34,353.51,234.51Z" fill="#3adb83" stroke="#18a052" stroke-miterlimit="10" stroke-width="3.42"/>
    <path id="Path_25" data-name="Path 25" d="M158.42,241.88c-5.93,0-16.1-10.83-24.4-34.62-15.43-44.22-15.73-109.5-.65-142.55,4.19-9.17,9.21-14.87,13.1-14.87,5.94,0,16.11,10.83,24.41,34.62,15.43,44.22,15.72,109.5.64,142.55C167.34,236.18,162.32,241.88,158.42,241.88Z" fill="#ff92c4"/>
    <path id="Path_26" data-name="Path 26" d="M328.91,242h-.46c-5.91-.61-14.91-12.43-20.71-36.95C297,159.45,303.39,94.49,321.79,63.18c5.84-9.93,11.11-13.47,14.1-13.47a3.55,3.55,0,0,1,.46,0c5.91.61,14.91,12.43,20.71,36.95,10.79,45.57,4.36,110.54-14.05,141.85C337.18,238.47,331.9,242,328.91,242Z" fill="#ff92c4"/>
    <g id="Group_15" data-name="Group 15">
      <ellipse id="Ellipse_2" data-name="Ellipse 2" cx="28.74" cy="26.55" rx="28.74" ry="26.55" transform="translate(155.28 274.09)" fill="#fff"/>
      <ellipse id="Ellipse_3" data-name="Ellipse 3" cx="22.81" cy="21.07" rx="22.81" ry="21.07" transform="translate(161.21 279.57)"/>
      <ellipse id="Ellipse_4" data-name="Ellipse 4" cx="10.42" cy="9.62" rx="10.42" ry="9.62" transform="translate(166.88 282.99)" fill="#fff"/>
      <ellipse id="Ellipse_5" data-name="Ellipse 5" cx="10.42" cy="6.35" rx="10.42" ry="6.35" transform="translate(187.78 303.52)" fill="#fff"/>
    </g>
    <g id="Group_16" data-name="Group 16">
      <ellipse id="Ellipse_6" data-name="Ellipse 6" cx="28.74" cy="26.55" rx="28.74" ry="26.55" transform="translate(280.85 274.09)" fill="#fff"/>
      <ellipse id="Ellipse_7" data-name="Ellipse 7" cx="22.81" cy="21.07" rx="22.81" ry="21.07" transform="translate(286.78 279.57)"/>
      <ellipse id="Ellipse_8" data-name="Ellipse 8" cx="10.42" cy="9.62" rx="10.42" ry="9.62" transform="translate(292.44 282.99)" fill="#fff"/>
      <ellipse id="Ellipse_9" data-name="Ellipse 9" cx="10.42" cy="6.35" rx="10.42" ry="6.35" transform="translate(313.35 303.52)" fill="#fff"/>
    </g>
    <path id="Path_27" data-name="Path 27" d="M289.33,387.59a1.83,1.83,0,0,0-2.5-.72c-18,10-32.52-1.57-36-4.79v-20c14.3-8.66,30-18.08,30-18.08a1.85,1.85,0,0,0,.63-2.53,1.82,1.82,0,0,0-.84-.74l.26-.16H216.74l.26.16a1.92,1.92,0,0,0-.84.74,1.85,1.85,0,0,0,.64,2.53s15.71,9.42,30,18.08v20c-3.53,3.22-18,14.75-36,4.79a1.842,1.842,0,0,0-1.79,3.22,33,33,0,0,0,16.19,4.38c11.53,0,20.3-6.42,23.62-9.27,3.33,2.85,12.09,9.27,23.62,9.27a33,33,0,0,0,16.19-4.38A1.84,1.84,0,0,0,289.33,387.59Z" fill="#095628"/>
    <ellipse id="Ellipse_10" data-name="Ellipse 10" cx="23.97" cy="12.36" rx="23.97" ry="12.36" transform="translate(157.941 247.313) rotate(-12.44)" fill="#095628"/>
    <ellipse id="Ellipse_11" data-name="Ellipse 11" cx="12.36" cy="23.97" rx="12.36" ry="23.97" transform="translate(283.513 261.097) rotate(-77.56)" fill="#095628"/>
  </g>
</svg>
