<svg xmlns="http://www.w3.org/2000/svg" xmlns:xlink="http://www.w3.org/1999/xlink" width="280.111" height="455.49" viewBox="0 0 280.111 455.49">
  <defs>
    <linearGradient id="linear-gradient" y1="0.5" x2="1" y2="0.5" gradientUnits="objectBoundingBox">
      <stop offset="0" stop-color="#fff" stop-opacity="0.502"/>
      <stop offset="1" stop-color="#fff" stop-opacity="0.502"/>
    </linearGradient>
    <linearGradient id="linear-gradient-2" x1="0" y1="0.5" x2="1" y2="0.5" xlink:href="#linear-gradient"/>
  </defs>
  <g id="detecticat" transform="translate(-88.477 -29.595)">
    <g id="Cat_Body" data-name="Cat Body">
      <path id="Path_28" data-name="Path 28" d="M301.36,209.86C293.3,220.07,265.61,239,232,239.35c0,0-.48,58.15,27.28,41.19,63.73-38.93,87.06-1.41,97,27.59C377.36,369.36,371.5,234.25,301.36,209.86Z" fill="#3d260a" stroke="#281600" stroke-miterlimit="10" stroke-width="2.83"/>
      <path id="Path_29" data-name="Path 29" d="M346.3,162.86c-12.2-2.45-28.18,26-35.7,63.57-.18.94-.35,1.86-.53,2.79-20.82-20.2-48.18-32.47-78.15-32.47-49.44,0-91.77,33.36-109.35,80.7C114.37,288,106,304,99.59,322.73c-12.43,36.23-13,68.87-1.19,72.91,6.68,2.29,15.88-5.12,24.87-18.57a131.08,131.08,0,0,0,24.42,40,78.69,78.69,0,0,0-2.92,21.69c0,24.81,10.53,44.91,23.53,44.91,11.33,0,20.8-15.3,23-35.66a108.61,108.61,0,0,0,78.17,1.18c2.46,19.77,11.77,34.48,22.89,34.48,13,0,23.53-20.1,23.53-44.91a80.54,80.54,0,0,0-2.21-19C336.06,396.19,350,363.05,350,326.33a140.34,140.34,0,0,0-8.76-49.06c5.46-11.1,10.32-25.68,13.59-42C362.31,197.72,358.51,165.3,346.3,162.86Z" fill="#b485ff" stroke="#6542a8" stroke-miterlimit="10" stroke-width="2.83"/>
      <path id="Path_30" data-name="Path 30" d="M160.76,209.86c-70.14,24.39-76,159.5-54.93,98.27,10-29,33.31-66.52,97.05-27.59,27.76,17,29.08-41.19,29.08-41.19C198.3,239,168.82,220.07,160.76,209.86Z" fill="#3d260a" stroke="#281600" stroke-miterlimit="10" stroke-width="2.83"/>
      <path id="Path_31" data-name="Path 31" d="M301.26,264.19c-11.59,1.27-25.44,6.22-42,16.35-27.76,17-27.28-41.19-27.28-41.19,33.65-.33,61.34-19.28,69.4-29.49,3.44,1.2,10.52.85,9.85,4.35Z" fill="#3d260a" stroke="#281600" stroke-miterlimit="10" stroke-width="2.83"/>
    </g>
    <g id="Cat_Face" data-name="Cat Face">
      <path id="Path_32" data-name="Path 32" d="M318.49,56.55a111,111,0,0,0-44.9,21.64,98.26,98.26,0,0,0-83.54,0,111,111,0,0,0-44.85-21.6S131,88.75,146.07,124a78.38,78.38,0,0,0-5.61,29.16c0,46.58,40.88,84.33,91.31,84.33s91.31-37.75,91.31-84.33a78.379,78.379,0,0,0-5.53-29C332.73,88.86,318.49,56.55,318.49,56.55Z" fill="#b485ff" stroke="#6542a8" stroke-miterlimit="10" stroke-width="3.02"/>
      <g id="Group_17" data-name="Group 17">
        <ellipse id="Ellipse_12" data-name="Ellipse 12" cx="22.11" cy="20.42" rx="22.11" ry="20.42" transform="translate(172.22 121.87)" fill="#fff"/>
        <ellipse id="Ellipse_13" data-name="Ellipse 13" cx="17.55" cy="16.21" rx="17.55" ry="16.21" transform="translate(176.78 126.08)"/>
        <ellipse id="Ellipse_14" data-name="Ellipse 14" cx="8.02" cy="7.4" rx="8.02" ry="7.4" transform="translate(181.14 128.72)" fill="#fff"/>
        <ellipse id="Ellipse_15" data-name="Ellipse 15" cx="8.02" cy="4.88" rx="8.02" ry="4.88" transform="translate(197.22 144.51)" fill="#fff"/>
      </g>
      <ellipse id="Ellipse_16" data-name="Ellipse 16" cx="4.46" cy="18.17" rx="4.46" ry="18.17" transform="matrix(0.02, -1, 1, 0.02, 183.08, 121.355)" fill="#3a2277"/>
      <ellipse id="Ellipse_17" data-name="Ellipse 17" cx="18.15" cy="4.47" rx="18.15" ry="4.47" transform="matrix(0.999, -0.035, 0.035, 0.999, 241.966, 113.449)" fill="#3a2277"/>
      <ellipse id="Ellipse_18" data-name="Ellipse 18" cx="22.11" cy="20.42" rx="22.11" ry="20.42" transform="translate(245.98 121.87)" fill="#fff"/>
      <ellipse id="Ellipse_19" data-name="Ellipse 19" cx="17.55" cy="16.21" rx="17.55" ry="16.21" transform="translate(250.54 126.08)"/>
      <ellipse id="Ellipse_20" data-name="Ellipse 20" cx="8.02" cy="7.4" rx="8.02" ry="7.4" transform="translate(254.26 128.72)" fill="#fff"/>
      <g id="Group_18" data-name="Group 18">
        <path id="Path_33" data-name="Path 33" d="M148.24,61.91l16.87,29.7s-12.87,15.2-16,23.81a97.37,97.37,0,0,1-.87-53.51Z" fill="#ff80ba"/>
        <path id="Path_34" data-name="Path 34" d="M315.45,61.91l-16.86,29.7s12.87,15.2,16,23.81a97.37,97.37,0,0,0,.86-53.51Z" fill="#ff80ba"/>
      </g>
      <ellipse id="Ellipse_21" data-name="Ellipse 21" cx="8.02" cy="4.88" rx="8.02" ry="4.88" transform="translate(271.21 144.51)" fill="#fff"/>
      <g id="Group_21" data-name="Group 21">
        <g id="Group_19" data-name="Group 19">
          <ellipse id="Ellipse_22" data-name="Ellipse 22" cx="2.36" cy="2.18" rx="2.36" ry="2.18" transform="translate(193.52 180.11)" fill="#6542a8"/>
          <ellipse id="Ellipse_23" data-name="Ellipse 23" cx="2.36" cy="2.18" rx="2.36" ry="2.18" transform="translate(199.76 175.37)" fill="#6542a8"/>
          <ellipse id="Ellipse_24" data-name="Ellipse 24" cx="2.36" cy="2.18" rx="2.36" ry="2.18" transform="translate(196.64 189.59)" fill="#6542a8"/>
          <ellipse id="Ellipse_25" data-name="Ellipse 25" cx="2.36" cy="2.18" rx="2.36" ry="2.18" transform="translate(206 194.33)" fill="#6542a8"/>
          <ellipse id="Ellipse_26" data-name="Ellipse 26" cx="2.36" cy="2.18" rx="2.36" ry="2.18" transform="translate(215.36 191.96)" fill="#6542a8"/>
          <ellipse id="Ellipse_27" data-name="Ellipse 27" cx="2.36" cy="2.18" rx="2.36" ry="2.18" transform="translate(218.48 184.85)" fill="#6542a8"/>
          <ellipse id="Ellipse_28" data-name="Ellipse 28" cx="2.36" cy="2.18" rx="2.36" ry="2.18" transform="translate(209.12 187.22)" fill="#6542a8"/>
          <ellipse id="Ellipse_29" data-name="Ellipse 29" cx="2.36" cy="2.18" rx="2.36" ry="2.18" transform="translate(212.24 177.74)" fill="#6542a8"/>
          <ellipse id="Ellipse_30" data-name="Ellipse 30" cx="2.36" cy="2.18" rx="2.36" ry="2.18" transform="translate(202.88 182.48)" fill="#6542a8"/>
        </g>
        <g id="Group_20" data-name="Group 20">
          <ellipse id="Ellipse_31" data-name="Ellipse 31" cx="2.36" cy="2.18" rx="2.36" ry="2.18" transform="translate(266.5 176.39)" fill="#6542a8"/>
          <ellipse id="Ellipse_32" data-name="Ellipse 32" cx="2.36" cy="2.18" rx="2.36" ry="2.18" transform="translate(260.26 171.65)" fill="#6542a8"/>
          <ellipse id="Ellipse_33" data-name="Ellipse 33" cx="2.36" cy="2.18" rx="2.36" ry="2.18" transform="translate(263.38 185.87)" fill="#6542a8"/>
          <ellipse id="Ellipse_34" data-name="Ellipse 34" cx="2.36" cy="2.18" rx="2.36" ry="2.18" transform="translate(254.01 190.6)" fill="#6542a8"/>
          <ellipse id="Ellipse_35" data-name="Ellipse 35" cx="2.36" cy="2.18" rx="2.36" ry="2.18" transform="translate(244.65 188.24)" fill="#6542a8"/>
          <ellipse id="Ellipse_36" data-name="Ellipse 36" cx="2.36" cy="2.18" rx="2.36" ry="2.18" transform="translate(241.53 181.13)" fill="#6542a8"/>
          <ellipse id="Ellipse_37" data-name="Ellipse 37" cx="2.36" cy="2.18" rx="2.36" ry="2.18" transform="translate(250.89 183.5)" fill="#6542a8"/>
          <ellipse id="Ellipse_38" data-name="Ellipse 38" cx="2.36" cy="2.18" rx="2.36" ry="2.18" transform="translate(247.77 174.02)" fill="#6542a8"/>
          <ellipse id="Ellipse_39" data-name="Ellipse 39" cx="2.36" cy="2.18" rx="2.36" ry="2.18" transform="translate(257.14 178.76)" fill="#6542a8"/>
        </g>
      </g>
      <g id="Group_22" data-name="Group 22">
        <ellipse id="Ellipse_40" data-name="Ellipse 40" cx="55.1" cy="36.55" rx="55.1" ry="36.55" transform="translate(176.75 30.7)" fill="#3d260a" stroke="#281600" stroke-miterlimit="10" stroke-width="2.21"/>
        <ellipse id="Ellipse_41" data-name="Ellipse 41" cx="55.1" cy="20.23" rx="55.1" ry="20.23" transform="translate(176.75 72.47)" fill="#3d260a" stroke="#281600" stroke-miterlimit="10" stroke-width="2.21"/>
      </g>
      <path id="Path_35" data-name="Path 35" d="M280.25,177.88a2.29,2.29,0,0,0-2.74,1.83c-2.53,11.87-7.27,19.2-14.09,21.79-11.29,4.29-25.46-5.17-29.13-7.84V182.6c23.6-13.49,9.45-33.4-2.28-19.22h-.16c-11.74-14.22-25.91,5.7-2.3,19.2v11.06c-3.67,2.67-17.84,12.13-29.13,7.84-6.82-2.59-11.56-9.92-14.09-21.79a2.29,2.29,0,0,0-2.74-1.83,2.42,2.42,0,0,0-1.75,2.87c2.89,13.58,8.61,22.08,17,25.27a22,22,0,0,0,7.87,1.39c10.89,0,21.53-6.95,25.2-9.61,3.67,2.66,14.31,9.61,25.2,9.61A22,22,0,0,0,265,206c8.4-3.19,14.12-11.69,17-25.27A2.41,2.41,0,0,0,280.25,177.88Z" fill="#3a2277"/>
    </g>
    <g id="Magnified_Glass" data-name="Magnified Glass">
      <g id="Group_25" data-name="Group 25">
        <g id="Group_23" data-name="Group 23">
          <path id="Path_36" data-name="Path 36" d="M189.75,172.88S165.2,151.44,115.52,163" fill="none" stroke="#1e1e1e" stroke-linecap="round" stroke-miterlimit="10" stroke-width="1.11"/>
          <path id="Path_37" data-name="Path 37" d="M191.65,177.52s-32.06-28.37-82.41-.88" fill="none" stroke="#1e1e1e" stroke-linecap="round" stroke-miterlimit="10" stroke-width="1.11"/>
          <path id="Path_38" data-name="Path 38" d="M190.44,180.81s-27.83-21.09-66.69,4" fill="none" stroke="#1e1e1e" stroke-linecap="round" stroke-miterlimit="10" stroke-width="1.11"/>
        </g>
        <g id="Group_24" data-name="Group 24">
          <path id="Path_39" data-name="Path 39" d="M274.09,172.88s24.55-21.44,74.23-9.86" fill="none" stroke="#1e1e1e" stroke-linecap="round" stroke-miterlimit="10" stroke-width="1.11"/>
          <path id="Path_40" data-name="Path 40" d="M272.2,177.52s32.05-28.37,82.41-.88" fill="none" stroke="#1e1e1e" stroke-linecap="round" stroke-miterlimit="10" stroke-width="1.11"/>
          <path id="Path_41" data-name="Path 41" d="M273.4,180.81s27.84-21.09,66.69,4" fill="none" stroke="#1e1e1e" stroke-linecap="round" stroke-miterlimit="10" stroke-width="1.11"/>
        </g>
      </g>
      <line id="Line_1" data-name="Line 1" x2="49.73" y2="24.25" transform="translate(298.59 157.85)" stroke="#000" stroke-linecap="round" stroke-miterlimit="10" stroke-width="5.67" fill="url(#linear-gradient)"/>
      <circle id="Ellipse_42" data-name="Ellipse 42" cx="30.05" cy="30.05" r="30.05" transform="translate(241.16 115.41)" stroke="#000" stroke-miterlimit="10" stroke-width="5.67" fill="url(#linear-gradient-2)"/>
    </g>
  </g>
</svg>
