<svg id="Cat" xmlns="http://www.w3.org/2000/svg" xmlns:xlink="http://www.w3.org/1999/xlink" viewBox="0 0 500 500">
  <defs>
    <style>
      .cls-1, .cls-8 {
        fill: #3d260a;
        stroke: #281600;
      }

      .cls-1, .cls-10, .cls-11, .cls-2, .cls-3, .cls-8, .cls-9 {
        stroke-miterlimit: 10;
      }

      .cls-1, .cls-2 {
        stroke-width: 2.83px;
      }

      .cls-2, .cls-3 {
        fill: #b485ff;
        stroke: #6542a8;
      }

      .cls-3 {
        stroke-width: 3.02px;
      }

      .cls-4 {
        fill: #fff;
      }

      .cls-5 {
        fill: #3a2277;
      }

      .cls-6 {
        fill: #ff80ba;
      }

      .cls-7 {
        fill: #6542a8;
      }

      .cls-8 {
        stroke-width: 2.21px;
      }

      .cls-9 {
        fill: none;
        stroke: #1e1e1e;
        stroke-width: 1.11px;
      }

      .cls-10, .cls-9 {
        stroke-linecap: round;
      }

      .cls-10, .cls-11 {
        stroke: #000;
        stroke-width: 5.67px;
      }

      .cls-10 {
        fill: url(#linear-gradient);
      }

      .cls-11 {
        fill: url(#linear-gradient-2);
      }
    </style>
    <linearGradient id="linear-gradient" x1="298.59" y1="169.97" x2="348.32" y2="169.97" gradientUnits="userSpaceOnUse">
      <stop offset="0" stop-color="#fff" stop-opacity="0.5"/>
      <stop offset="1" stop-color="#fff" stop-opacity="0.5"/>
    </linearGradient>
    <linearGradient id="linear-gradient-2" x1="241.17" y1="145.46" x2="301.26" y2="145.46" xlink:href="#linear-gradient"/>
  </defs>
  <g id="Cat_Body" data-name="Cat Body">
    <path class="cls-1" d="M301.36,209.86C293.3,220.07,265.61,239,232,239.35c0,0-.48,58.15,27.28,41.19,63.73-38.93,87.06-1.41,97,27.59C377.36,369.36,371.5,234.25,301.36,209.86Z"/>
    <path class="cls-2" d="M346.3,162.86c-12.2-2.45-28.18,26-35.7,63.57-.18.94-.35,1.86-.53,2.79-20.82-20.2-48.18-32.47-78.15-32.47-49.44,0-91.77,33.36-109.35,80.7C114.37,288,106,304,99.59,322.73c-12.43,36.23-13,68.87-1.19,72.91,6.68,2.29,15.88-5.12,24.87-18.57a131.08,131.08,0,0,0,24.42,40,78.69,78.69,0,0,0-2.92,21.69c0,24.81,10.53,44.91,23.53,44.91,11.33,0,20.8-15.3,23-35.66a108.61,108.61,0,0,0,78.17,1.18c2.46,19.77,11.77,34.48,22.89,34.48,13,0,23.53-20.1,23.53-44.91a80.54,80.54,0,0,0-2.21-19C336.06,396.19,350,363.05,350,326.33a140.34,140.34,0,0,0-8.76-49.06c5.46-11.1,10.32-25.68,13.59-42C362.31,197.72,358.51,165.3,346.3,162.86Z"/>
    <path class="cls-1" d="M160.76,209.86c-70.14,24.39-76,159.5-54.93,98.27,10-29,33.31-66.52,97.05-27.59,27.76,17,29.08-41.19,29.08-41.19C198.3,239,168.82,220.07,160.76,209.86Z"/>
    <path class="cls-1" d="M301.26,264.19c-11.59,1.27-25.44,6.22-42,16.35-27.76,17-27.28-41.19-27.28-41.19,33.65-.33,61.34-19.28,69.4-29.49,3.44,1.2,10.52.85,9.85,4.35Z"/>
  </g>
  <g id="Cat_Face" data-name="Cat Face">
    <path class="cls-3" d="M318.49,56.55a111,111,0,0,0-44.9,21.64,98.26,98.26,0,0,0-83.54,0,111,111,0,0,0-44.85-21.6S131,88.75,146.07,124a78.38,78.38,0,0,0-5.61,29.16c0,46.58,40.88,84.33,91.31,84.33s91.31-37.75,91.31-84.33a78.38,78.38,0,0,0-5.53-29C332.73,88.86,318.49,56.55,318.49,56.55Z"/>
    <g>
      <ellipse class="cls-4" cx="194.33" cy="142.29" rx="22.11" ry="20.42"/>
      <ellipse cx="194.33" cy="142.29" rx="17.55" ry="16.21"/>
      <ellipse class="cls-4" cx="189.16" cy="136.12" rx="8.02" ry="7.4"/>
      <ellipse class="cls-4" cx="205.24" cy="149.39" rx="8.02" ry="4.88"/>
    </g>
    <ellipse class="cls-5" cx="201.36" cy="117.28" rx="4.46" ry="18.17" transform="translate(79.97 316.19) rotate(-88.83)"/>
    <ellipse class="cls-5" cx="260.26" cy="117.28" rx="18.15" ry="4.47" transform="translate(-3.95 9.2) rotate(-2.01)"/>
    <ellipse class="cls-4" cx="268.09" cy="142.29" rx="22.11" ry="20.42"/>
    <ellipse cx="268.09" cy="142.29" rx="17.55" ry="16.21"/>
    <ellipse class="cls-4" cx="262.28" cy="136.12" rx="8.02" ry="7.4"/>
    <g>
      <path class="cls-6" d="M148.24,61.91l16.87,29.7s-12.87,15.2-16,23.81A97.37,97.37,0,0,1,148.24,61.91Z"/>
      <path class="cls-6" d="M315.45,61.91l-16.86,29.7s12.87,15.2,16,23.81A97.37,97.37,0,0,0,315.45,61.91Z"/>
    </g>
    <ellipse class="cls-4" cx="279.23" cy="149.39" rx="8.02" ry="4.88"/>
    <g>
      <g>
        <ellipse class="cls-7" cx="195.88" cy="182.29" rx="2.36" ry="2.18"/>
        <ellipse class="cls-7" cx="202.12" cy="177.55" rx="2.36" ry="2.18"/>
        <ellipse class="cls-7" cx="199" cy="191.77" rx="2.36" ry="2.18"/>
        <ellipse class="cls-7" cx="208.36" cy="196.51" rx="2.36" ry="2.18"/>
        <ellipse class="cls-7" cx="217.72" cy="194.14" rx="2.36" ry="2.18"/>
        <ellipse class="cls-7" cx="220.84" cy="187.03" rx="2.36" ry="2.18"/>
        <ellipse class="cls-7" cx="211.48" cy="189.4" rx="2.36" ry="2.18"/>
        <ellipse class="cls-7" cx="214.6" cy="179.92" rx="2.36" ry="2.18"/>
        <ellipse class="cls-7" cx="205.24" cy="184.66" rx="2.36" ry="2.18"/>
      </g>
      <g>
        <ellipse class="cls-7" cx="268.86" cy="178.57" rx="2.36" ry="2.18"/>
        <ellipse class="cls-7" cx="262.62" cy="173.83" rx="2.36" ry="2.18"/>
        <ellipse class="cls-7" cx="265.74" cy="188.05" rx="2.36" ry="2.18"/>
        <ellipse class="cls-7" cx="256.37" cy="192.78" rx="2.36" ry="2.18"/>
        <ellipse class="cls-7" cx="247.01" cy="190.42" rx="2.36" ry="2.18"/>
        <ellipse class="cls-7" cx="243.89" cy="183.31" rx="2.36" ry="2.18"/>
        <ellipse class="cls-7" cx="253.25" cy="185.68" rx="2.36" ry="2.18"/>
        <ellipse class="cls-7" cx="250.13" cy="176.2" rx="2.36" ry="2.18"/>
        <ellipse class="cls-7" cx="259.5" cy="180.94" rx="2.36" ry="2.18"/>
      </g>
    </g>
    <g>
      <ellipse class="cls-8" cx="231.85" cy="67.25" rx="55.1" ry="36.55"/>
      <ellipse class="cls-8" cx="231.85" cy="92.7" rx="55.1" ry="20.23"/>
    </g>
    <path class="cls-5" d="M280.25,177.88a2.29,2.29,0,0,0-2.74,1.83c-2.53,11.87-7.27,19.2-14.09,21.79-11.29,4.29-25.46-5.17-29.13-7.84V182.6c23.6-13.49,9.45-33.4-2.28-19.22l-.16,0c-11.74-14.22-25.91,5.7-2.3,19.2v11.06c-3.67,2.67-17.84,12.13-29.13,7.84-6.82-2.59-11.56-9.92-14.09-21.79a2.29,2.29,0,0,0-2.74-1.83,2.42,2.42,0,0,0-1.75,2.87c2.89,13.58,8.61,22.08,17,25.27a22,22,0,0,0,7.87,1.39c10.89,0,21.53-6.95,25.2-9.61,3.67,2.66,14.31,9.61,25.2,9.61A22,22,0,0,0,265,206c8.4-3.19,14.12-11.69,17-25.27A2.41,2.41,0,0,0,280.25,177.88Z"/>
  </g>
  <g id="Magnified_Glass" data-name="Magnified Glass">
    <g>
      <g>
        <path class="cls-9" d="M189.75,172.88S165.2,151.44,115.52,163"/>
        <path class="cls-9" d="M191.65,177.52s-32.06-28.37-82.41-.88"/>
        <path class="cls-9" d="M190.44,180.81s-27.83-21.09-66.69,4"/>
      </g>
      <g>
        <path class="cls-9" d="M274.09,172.88s24.55-21.44,74.23-9.86"/>
        <path class="cls-9" d="M272.2,177.52s32.05-28.37,82.41-.88"/>
        <path class="cls-9" d="M273.4,180.81s27.84-21.09,66.69,4"/>
      </g>
    </g>
    <line class="cls-10" x1="298.59" y1="157.85" x2="348.32" y2="182.1"/>
    <circle class="cls-11" cx="271.21" cy="145.46" r="30.05"/>
  </g>
</svg>
