<svg xmlns="http://www.w3.org/2000/svg" viewBox="0 0 500 500">
  <defs>
    <style>
      .cls-1, .cls-2 {
        fill: #ff88db;
        stroke: #a5427b;
        stroke-miterlimit: 10;
      }

      .cls-1 {
        stroke-width: 4.8px;
      }

      .cls-2 {
        stroke-width: 3.61px;
      }

      .cls-3 {
        fill: #ffccf2;
      }

      .cls-4 {
        fill: #ffcce1;
      }

      .cls-5 {
        fill: #fff;
      }

      .cls-6 {
        fill: #a5427b;
      }
    </style>
  </defs>
  <g id="Hamster_Evil" data-name="Hamster Evil">
    <path class="cls-1" d="M405.71,294.7c-4.23-14.85-10.49-27.77-17.45-37.2-20-56.22-76.36-96.74-142.81-96.74-65.64,0-121.45,39.53-142,94.67-7.6,9.56-14.5,23.3-19,39.27-9.55,33.55-5.11,64.22,9.92,68.5,4.31,1.22,9,.14,13.76-2.8a143.56,143.56,0,0,0,42.79,52.24,84.46,84.46,0,0,0-.81,11.75c0,27.43,12.67,49.67,28.3,49.67,12.72,0,23.48-14.74,27-35a160.36,160.36,0,0,0,83.82-1c3.38,20.78,14.28,36,27.2,36,15.63,0,28.3-22.24,28.3-49.67A84.61,84.61,0,0,0,343.46,410a143.16,143.16,0,0,0,39.21-49.19c4.53,2.64,9,3.58,13.11,2.41C410.81,358.92,415.25,328.25,405.71,294.7Z"/>
    <path class="cls-2" d="M337.5,95.13a37.61,37.61,0,0,0,17.43-11.35c12.77-14.6,12.45-35.76-.7-47.26s-34.17-9-46.93,5.61a37.78,37.78,0,0,0-8.67,17.36c-17.18-8.88-37.82-14.07-60-14.07-23.1,0-44.5,5.61-62.08,15.16a37.73,37.73,0,0,0-8.88-18.45C154.87,27.53,133.85,25,120.7,36.52s-13.47,32.66-.7,47.26a37.52,37.52,0,0,0,19.39,11.88,68.35,68.35,0,0,0-8.94,30c-7.29,8.37-11.51,18.23-11.51,28.79,0,30.33,34.76,54.93,77.64,54.93q4.41,0,8.7-.35a139.08,139.08,0,0,0,67.08-.11c3.3.3,6.66.46,10.07.46,42.88,0,77.64-24.6,77.64-54.93,0-11.48-5-22.14-13.49-30.95A68.65,68.65,0,0,0,337.5,95.13Z"/>
    <circle class="cls-3" cx="162.21" cy="154.55" r="38.42"/>
    <circle class="cls-3" cx="317.21" cy="153.52" r="38.42"/>
    <path class="cls-4" d="M147.26,87.83A27.68,27.68,0,0,1,126.61,78c-9.56-10.93-9.62-26.58-.13-34.87a20.7,20.7,0,0,1,13.89-5.05A27.72,27.72,0,0,1,161,47.91c9.56,10.93,9.62,26.58.13,34.88A20.76,20.76,0,0,1,147.26,87.83Z"/>
    <path class="cls-4" d="M327.67,87.83A27.68,27.68,0,0,0,348.32,78c9.56-10.93,9.62-26.58.13-34.87a20.7,20.7,0,0,0-13.89-5.05,27.68,27.68,0,0,0-20.65,9.83c-9.57,10.93-9.62,26.58-.14,34.88A20.76,20.76,0,0,0,327.67,87.83Z"/>
    <g>
      <ellipse class="cls-5" cx="193.72" cy="104.14" rx="19.41" ry="17.93"/>
      <ellipse cx="193.72" cy="104.14" rx="15.41" ry="14.23"/>
      <ellipse class="cls-5" cx="189.18" cy="98.72" rx="7.04" ry="6.5"/>
      <ellipse class="cls-5" cx="203.3" cy="110.37" rx="7.04" ry="4.29"/>
    </g>
    <g>
      <ellipse class="cls-5" cx="278.51" cy="104.14" rx="19.41" ry="17.93"/>
      <ellipse cx="278.51" cy="104.14" rx="15.41" ry="14.23"/>
      <ellipse class="cls-5" cx="273.97" cy="98.72" rx="7.04" ry="6.5"/>
      <ellipse class="cls-5" cx="288.09" cy="110.37" rx="7.04" ry="4.29"/>
    </g>
    <ellipse class="cls-6" cx="204.98" cy="84.41" rx="7.92" ry="23.22" transform="translate(41.14 233.74) rotate(-64.73)"/>
    <ellipse class="cls-6" cx="268.02" cy="84.42" rx="23.23" ry="7.92" transform="translate(-10.39 122.5) rotate(-25.27)"/>
    <path class="cls-6" d="M282.28,135.15a1.35,1.35,0,1,0-2.46,1.13c6.62,14.51,7.69,24.06,3.15,28.38-8.17,7.78-34-2.69-44.16-7.83v-11.2c9.66-5.85,20.27-12.21,20.27-12.21a1.24,1.24,0,0,0,.42-1.71,1.18,1.18,0,0,0-.56-.5l.18-.1h-43.3l.17.1a1.18,1.18,0,0,0-.56.5,1.24,1.24,0,0,0,.42,1.71s10.62,6.36,20.28,12.21v11.2c-10.2,5.14-36,15.61-44.17,7.83-4.54-4.32-3.47-13.87,3.15-28.38a1.35,1.35,0,1,0-2.46-1.13c-7.25,15.9-8.09,26.19-2.56,31.46,2.67,2.55,6.62,3.53,11.12,3.53,13.7,0,32.52-9.09,36.25-11,3.74,1.87,22.56,11,36.26,11,4.5,0,8.45-1,11.12-3.53C290.37,161.34,289.54,151.05,282.28,135.15Z"/>
  </g>
</svg>
