<svg xmlns="http://www.w3.org/2000/svg" width="336.244" height="449" viewBox="0 0 336.244 449">
  <g id="Hamster_Evil" data-name="Hamster Evil" transform="translate(-76.954 -27.459)">
    <path id="Path_45" data-name="Path 45" d="M405.71,294.7c-4.23-14.85-10.49-27.77-17.45-37.2-20-56.22-76.36-96.74-142.81-96.74-65.64,0-121.45,39.53-142,94.67-7.6,9.56-14.5,23.3-19,39.27-9.55,33.55-5.11,64.22,9.92,68.5,4.31,1.22,9,.14,13.76-2.8a143.561,143.561,0,0,0,42.79,52.24,84.463,84.463,0,0,0-.81,11.75c0,27.43,12.67,49.67,28.3,49.67,12.72,0,23.48-14.74,27-35a160.36,160.36,0,0,0,83.82-1c3.38,20.78,14.28,36,27.2,36,15.63,0,28.3-22.24,28.3-49.67A84.612,84.612,0,0,0,343.46,410a143.16,143.16,0,0,0,39.21-49.19c4.53,2.64,9,3.58,13.11,2.41C410.81,358.92,415.25,328.25,405.71,294.7Z" fill="#ff88db" stroke="#a5427b" stroke-miterlimit="10" stroke-width="4.8"/>
    <path id="Path_46" data-name="Path 46" d="M337.5,95.13a37.61,37.61,0,0,0,17.43-11.35c12.77-14.6,12.45-35.76-.7-47.26s-34.17-9-46.93,5.61a37.78,37.78,0,0,0-8.67,17.36c-17.18-8.88-37.82-14.07-60-14.07-23.1,0-44.5,5.61-62.08,15.16a37.73,37.73,0,0,0-8.88-18.45c-12.8-14.6-33.82-17.13-46.97-5.61s-13.47,32.66-.7,47.26a37.52,37.52,0,0,0,19.39,11.88,68.35,68.35,0,0,0-8.94,30c-7.29,8.37-11.51,18.23-11.51,28.79,0,30.33,34.76,54.93,77.64,54.93q4.41,0,8.7-.35a139.08,139.08,0,0,0,67.08-.11c3.3.3,6.66.46,10.07.46,42.88,0,77.64-24.6,77.64-54.93,0-11.48-5-22.14-13.49-30.95a68.65,68.65,0,0,0-9.08-28.37Z" fill="#ff88db" stroke="#a5427b" stroke-miterlimit="10" stroke-width="3.61"/>
    <circle id="Ellipse_55" data-name="Ellipse 55" cx="38.42" cy="38.42" r="38.42" transform="translate(123.79 116.13)" fill="#ffccf2"/>
    <circle id="Ellipse_56" data-name="Ellipse 56" cx="38.42" cy="38.42" r="38.42" transform="translate(278.79 115.1)" fill="#ffccf2"/>
    <path id="Path_47" data-name="Path 47" d="M147.26,87.83A27.68,27.68,0,0,1,126.61,78c-9.56-10.93-9.62-26.58-.13-34.87a20.7,20.7,0,0,1,13.89-5.05A27.72,27.72,0,0,1,161,47.91c9.56,10.93,9.62,26.58.13,34.88A20.76,20.76,0,0,1,147.26,87.83Z" fill="#ffcce1"/>
    <path id="Path_48" data-name="Path 48" d="M327.67,87.83A27.68,27.68,0,0,0,348.32,78c9.56-10.93,9.62-26.58.13-34.87a20.7,20.7,0,0,0-13.89-5.05,27.68,27.68,0,0,0-20.65,9.83c-9.57,10.93-9.62,26.58-.14,34.88a20.76,20.76,0,0,0,13.9,5.04Z" fill="#ffcce1"/>
    <g id="Group_28" data-name="Group 28">
      <ellipse id="Ellipse_57" data-name="Ellipse 57" cx="19.41" cy="17.93" rx="19.41" ry="17.93" transform="translate(174.31 86.21)" fill="#fff"/>
      <ellipse id="Ellipse_58" data-name="Ellipse 58" cx="15.41" cy="14.23" rx="15.41" ry="14.23" transform="translate(178.31 89.91)"/>
      <ellipse id="Ellipse_59" data-name="Ellipse 59" cx="7.04" cy="6.5" rx="7.04" ry="6.5" transform="translate(182.14 92.22)" fill="#fff"/>
      <ellipse id="Ellipse_60" data-name="Ellipse 60" cx="7.04" cy="4.29" rx="7.04" ry="4.29" transform="translate(196.26 106.08)" fill="#fff"/>
    </g>
    <g id="Group_29" data-name="Group 29">
      <ellipse id="Ellipse_61" data-name="Ellipse 61" cx="19.41" cy="17.93" rx="19.41" ry="17.93" transform="translate(259.1 86.21)" fill="#fff"/>
      <ellipse id="Ellipse_62" data-name="Ellipse 62" cx="15.41" cy="14.23" rx="15.41" ry="14.23" transform="translate(263.1 89.91)"/>
      <ellipse id="Ellipse_63" data-name="Ellipse 63" cx="7.04" cy="6.5" rx="7.04" ry="6.5" transform="translate(266.93 92.22)" fill="#fff"/>
      <ellipse id="Ellipse_64" data-name="Ellipse 64" cx="7.04" cy="4.29" rx="7.04" ry="4.29" transform="translate(281.05 106.08)" fill="#fff"/>
    </g>
    <ellipse id="Ellipse_65" data-name="Ellipse 65" cx="7.92" cy="23.22" rx="7.92" ry="23.22" transform="translate(180.596 81.657) rotate(-64.73)" fill="#a5427b"/>
    <ellipse id="Ellipse_66" data-name="Ellipse 66" cx="23.23" cy="7.92" rx="23.23" ry="7.92" transform="translate(243.632 87.184) rotate(-25.27)" fill="#a5427b"/>
    <path id="Path_49" data-name="Path 49" d="M282.28,135.15a1.354,1.354,0,1,0-2.46,1.13c6.62,14.51,7.69,24.06,3.15,28.38-8.17,7.78-34-2.69-44.16-7.83v-11.2c9.66-5.85,20.27-12.21,20.27-12.21a1.24,1.24,0,0,0,.42-1.71,1.18,1.18,0,0,0-.56-.5l.18-.1h-43.3l.17.1a1.18,1.18,0,0,0-.56.5,1.24,1.24,0,0,0,.42,1.71s10.62,6.36,20.28,12.21v11.2c-10.2,5.14-36,15.61-44.17,7.83-4.54-4.32-3.47-13.87,3.15-28.38a1.354,1.354,0,1,0-2.46-1.13c-7.25,15.9-8.09,26.19-2.56,31.46,2.67,2.55,6.62,3.53,11.12,3.53,13.7,0,32.52-9.09,36.25-11,3.74,1.87,22.56,11,36.26,11,4.5,0,8.45-1,11.12-3.53C290.37,161.34,289.54,151.05,282.28,135.15Z" fill="#a5427b"/>
  </g>
</svg>
