<svg xmlns="http://www.w3.org/2000/svg" viewBox="0 0 500 500">
  <defs>
    <style>
      .cls-1 {
        fill: #ff88db;
        stroke: #a5427b;
        stroke-miterlimit: 10;
        stroke-width: 3.49px;
      }

      .cls-2 {
        fill: #ffccf2;
      }

      .cls-3 {
        fill: #ffcce1;
      }

      .cls-4 {
        fill: #fff;
      }

      .cls-5 {
        fill: #a5427b;
      }
    </style>
  </defs>
  <g id="Hamster_Good" data-name="Hamster Good">
    <path class="cls-1" d="M422.48,192.82a67.79,67.79,0,0,0,31.38-20.44c23-26.27,22.41-64.35-1.26-85s-61.49-16.18-84.46,10.1a68.16,68.16,0,0,0-15.6,31.24c-30.91-16-68.07-25.32-108-25.32-41.58,0-80.1,10.1-111.74,27.28a67.81,67.81,0,0,0-16-33.2c-23-26.28-60.79-30.8-84.46-10.1s-24.24,58.78-1.26,85.05A67.47,67.47,0,0,0,66,193.77a122.85,122.85,0,0,0-16.09,53.9c-13.13,15.07-20.72,32.81-20.72,51.82,0,54.59,62.56,98.85,139.73,98.85,5.29,0,10.51-.22,15.66-.62a250,250,0,0,0,120.72-.21q8.89.83,18.12.83c77.17,0,139.73-44.26,139.73-98.85,0-20.66-9-39.84-24.28-55.7A123.39,123.39,0,0,0,422.48,192.82Z"/>
    <circle class="cls-2" cx="107.03" cy="299.74" r="69.14"/>
    <circle class="cls-2" cx="385.98" cy="297.89" r="69.14"/>
    <path class="cls-3" d="M80.14,179.68C66.35,179.68,52.8,173.23,43,162c-17.21-19.68-17.32-47.84-.24-62.77a37.33,37.33,0,0,1,25-9.08c13.79,0,27.34,6.44,37.17,17.69,17.21,19.68,17.31,47.83.24,62.76A37.31,37.31,0,0,1,80.14,179.68Z"/>
    <path class="cls-3" d="M404.8,179.68c13.78,0,27.33-6.45,37.17-17.69,17.2-19.68,17.31-47.84.23-62.77a37.33,37.33,0,0,0-25-9.08c-13.79,0-27.34,6.44-37.17,17.69-17.21,19.68-17.31,47.83-.24,62.76A37.34,37.34,0,0,0,404.8,179.68Z"/>
    <g>
      <ellipse class="cls-4" cx="163.74" cy="209.02" rx="34.93" ry="32.26"/>
      <ellipse cx="163.74" cy="209.02" rx="27.72" ry="25.6"/>
      <ellipse class="cls-4" cx="155.57" cy="199.27" rx="12.66" ry="11.7"/>
      <ellipse class="cls-4" cx="180.98" cy="220.24" rx="12.66" ry="7.72"/>
    </g>
    <g>
      <ellipse class="cls-4" cx="316.34" cy="209.02" rx="34.93" ry="32.26"/>
      <ellipse cx="316.34" cy="209.02" rx="27.72" ry="25.6"/>
      <ellipse class="cls-4" cx="308.17" cy="199.27" rx="12.66" ry="11.7"/>
      <ellipse class="cls-4" cx="333.57" cy="220.24" rx="12.66" ry="7.72"/>
    </g>
    <ellipse class="cls-5" cx="168.24" cy="156.86" rx="37.21" ry="14.25" transform="translate(-19 23.25) rotate(-7.48)"/>
    <ellipse class="cls-5" cx="308.17" cy="156.86" rx="14.25" ry="37.21" transform="translate(112.5 441.96) rotate(-82.52)"/>
    <path class="cls-5" d="M291.72,314.69a2.24,2.24,0,0,0-3-.88c-21.88,12.11-39.52-1.9-43.8-5.82v-24.3c17.38-10.52,36.48-22,36.48-22a2.23,2.23,0,0,0-.25-4l.32-.2H203.5l.32.2a2.23,2.23,0,0,0-.25,4s19.1,11.46,36.48,22V308c-4.28,3.92-21.92,17.93-43.79,5.82a2.24,2.24,0,1,0-2.17,3.92,40.2,40.2,0,0,0,19.67,5.32c14,0,24.66-7.8,28.71-11.26,4,3.46,14.69,11.26,28.7,11.26a40.2,40.2,0,0,0,19.67-5.32A2.23,2.23,0,0,0,291.72,314.69Z"/>
  </g>
</svg>
