<svg xmlns="http://www.w3.org/2000/svg" xmlns:xlink="http://www.w3.org/1999/xlink" width="112" height="86" viewBox="0 0 112 86">
  <defs>
    <filter id="Rectangle_23" x="0" y="0" width="112" height="86" filterUnits="userSpaceOnUse">
      <feOffset dx="5" dy="8" input="SourceAlpha"/>
      <feGaussianBlur stdDeviation="3" result="blur"/>
      <feFlood flood-opacity="0.161"/>
      <feComposite operator="in" in2="blur"/>
      <feComposite in="SourceGraphic"/>
    </filter>
    <filter id="Rectangle_24" x="24" y="0" width="21" height="86" filterUnits="userSpaceOnUse">
      <feOffset dx="5" dy="8" input="SourceAlpha"/>
      <feGaussianBlur stdDeviation="3" result="blur-2"/>
      <feFlood flood-opacity="0.161"/>
      <feComposite operator="in" in2="blur-2"/>
      <feComposite in="SourceGraphic"/>
    </filter>
    <filter id="Rectangle_25" x="70" y="0" width="21" height="86" filterUnits="userSpaceOnUse">
      <feOffset dx="5" dy="8" input="SourceAlpha"/>
      <feGaussianBlur stdDeviation="3" result="blur-3"/>
      <feFlood flood-opacity="0.161"/>
      <feComposite operator="in" in2="blur-3"/>
      <feComposite in="SourceGraphic"/>
    </filter>
    <filter id="Rectangle_26" x="46" y="0" width="21" height="86" filterUnits="userSpaceOnUse">
      <feOffset dx="5" dy="8" input="SourceAlpha"/>
      <feGaussianBlur stdDeviation="3" result="blur-4"/>
      <feFlood flood-opacity="0.161"/>
      <feComposite operator="in" in2="blur-4"/>
      <feComposite in="SourceGraphic"/>
    </filter>
    <clipPath id="clip">
      <use xlink:href="#fill"/>
    </clipPath>
    <clipPath id="clip-2">
      <use xlink:href="#fill-2"/>
    </clipPath>
    <clipPath id="clip-3">
      <use xlink:href="#fill-3"/>
    </clipPath>
  </defs>
  <g id="Group_10" data-name="Group 10" transform="translate(-251 -207)">
    <g transform="matrix(1, 0, 0, 1, 251, 207)" filter="url(#Rectangle_23)">
      <g id="Rectangle_23-2" data-name="Rectangle 23" transform="translate(4 1)" fill="#f2f2f2" stroke="#707070" stroke-width="5">
        <rect width="94" height="68" stroke="none"/>
        <rect x="2.5" y="2.5" width="89" height="63" fill="none"/>
      </g>
    </g>
    <g transform="matrix(1, 0, 0, 1, 251, 207)" filter="url(#Rectangle_24)">
      <g id="Rectangle_24-2" data-name="Rectangle 24" transform="translate(28 1)" fill="#f2f2f2" stroke="#707070" stroke-width="5">
        <rect id="fill" width="3" height="68" stroke="none"/>
        <path d="M0,2.5h3M2.5,0v68M3,65.5h-3M0.5,68v-68" fill="none" clip-path="url(#clip)"/>
      </g>
    </g>
    <g transform="matrix(1, 0, 0, 1, 251, 207)" filter="url(#Rectangle_25)">
      <g id="Rectangle_25-2" data-name="Rectangle 25" transform="translate(74 1)" fill="#f2f2f2" stroke="#707070" stroke-width="5">
        <rect id="fill-2" width="3" height="68" stroke="none"/>
        <path d="M0,2.5h3M2.5,0v68M3,65.5h-3M0.5,68v-68" fill="none" clip-path="url(#clip-2)"/>
      </g>
    </g>
    <g transform="matrix(1, 0, 0, 1, 251, 207)" filter="url(#Rectangle_26)">
      <g id="Rectangle_26-2" data-name="Rectangle 26" transform="translate(50 1)" fill="#f2f2f2" stroke="#707070" stroke-width="5">
        <rect id="fill-3" width="3" height="68" stroke="none"/>
        <path d="M0,2.5h3M2.5,0v68M3,65.5h-3M0.5,68v-68" fill="none" clip-path="url(#clip-3)"/>
      </g>
    </g>
  </g>
</svg>
