<svg xmlns="http://www.w3.org/2000/svg" xmlns:xlink="http://www.w3.org/1999/xlink" width="112" height="86" viewBox="0 0 112 86">
  <defs>
    <filter id="Rectangle_32" x="0" y="0" width="112" height="86" filterUnits="userSpaceOnUse">
      <feOffset dx="5" dy="8" input="SourceAlpha"/>
      <feGaussianBlur stdDeviation="3" result="blur"/>
      <feFlood flood-opacity="0.161"/>
      <feComposite operator="in" in2="blur"/>
      <feComposite in="SourceGraphic"/>
    </filter>
    <filter id="Rectangle_41" x="21" y="0" width="21" height="86" filterUnits="userSpaceOnUse">
      <feOffset dx="5" dy="8" input="SourceAlpha"/>
      <feGaussianBlur stdDeviation="3" result="blur-2"/>
      <feFlood flood-opacity="0.161"/>
      <feComposite operator="in" in2="blur-2"/>
      <feComposite in="SourceGraphic"/>
    </filter>
    <filter id="Rectangle_42" x="71" y="0" width="21" height="86" filterUnits="userSpaceOnUse">
      <feOffset dx="5" dy="8" input="SourceAlpha"/>
      <feGaussianBlur stdDeviation="3" result="blur-3"/>
      <feFlood flood-opacity="0.161"/>
      <feComposite operator="in" in2="blur-3"/>
      <feComposite in="SourceGraphic"/>
    </filter>
    <clipPath id="clip">
      <use xlink:href="#fill"/>
    </clipPath>
    <clipPath id="clip-2">
      <use xlink:href="#fill-2"/>
    </clipPath>
  </defs>
  <g id="Group_14" data-name="Group 14" transform="translate(-210 -546)">
    <g transform="matrix(1, 0, 0, 1, 210, 546)" filter="url(#Rectangle_32)">
      <g id="Rectangle_32-2" data-name="Rectangle 32" transform="translate(4 1)" fill="#f2f2f2" stroke="#707070" stroke-width="5">
        <rect width="94" height="68" stroke="none"/>
        <rect x="2.5" y="2.5" width="89" height="63" fill="none"/>
      </g>
    </g>
    <g transform="matrix(1, 0, 0, 1, 210, 546)" filter="url(#Rectangle_41)">
      <g id="Rectangle_41-2" data-name="Rectangle 41" transform="translate(25 1)" fill="#f2f2f2" stroke="#707070" stroke-width="5">
        <rect id="fill" width="3" height="68" stroke="none"/>
        <path d="M0,2.5h3M2.5,0v68M3,65.5h-3M0.5,68v-68" fill="none" clip-path="url(#clip)"/>
      </g>
    </g>
    <g transform="matrix(1, 0, 0, 1, 210, 546)" filter="url(#Rectangle_42)">
      <g id="Rectangle_42-2" data-name="Rectangle 42" transform="translate(75 1)" fill="#f2f2f2" stroke="#707070" stroke-width="5">
        <rect id="fill-2" width="3" height="68" stroke="none"/>
        <path d="M0,2.5h3M2.5,0v68M3,65.5h-3M0.5,68v-68" fill="none" clip-path="url(#clip-2)"/>
      </g>
    </g>
  </g>
</svg>
