<svg xmlns="http://www.w3.org/2000/svg" width="437.176" height="326.283" viewBox="0 0 437.176 326.283">
  <g id="Mouse" transform="translate(-20.51 -99.092)">
    <path id="Path_63" data-name="Path 63" d="M433.8,228.62c29.92-29.93,30.54-77.83,1.37-107s-77.07-28.55-107,1.38a77.43,77.43,0,0,0-22.62,49,161.83,161.83,0,0,0-132.74-.9,73.38,73.38,0,0,0-21.43-49.52C122.22,92.44,74.32,93.06,44.4,123S13.86,200.81,43,230a73.6,73.6,0,0,0,54.13,21.44,121.7,121.7,0,0,0-6.54,39.41c0,73.72,66.07,133.49,147.58,133.49s147.59-59.77,147.59-133.49a121.451,121.451,0,0,0-6.53-39.37A77.39,77.39,0,0,0,433.8,228.62Z" fill="#ffce55" stroke="#a88026" stroke-miterlimit="10" stroke-width="2.07"/>
    <g id="Group_32" data-name="Group 32">
      <ellipse id="Ellipse_79" data-name="Ellipse 79" cx="29.6" cy="27.34" rx="29.6" ry="27.34" transform="translate(154.49 247.44)" fill="#fff"/>
      <ellipse id="Ellipse_80" data-name="Ellipse 80" cx="23.49" cy="21.7" rx="23.49" ry="21.7" transform="translate(160.6 253.08)"/>
      <ellipse id="Ellipse_81" data-name="Ellipse 81" cx="10.73" cy="9.91" rx="10.73" ry="9.91" transform="translate(166.44 256.61)" fill="#fff"/>
      <ellipse id="Ellipse_82" data-name="Ellipse 82" cx="10.73" cy="6.54" rx="10.73" ry="6.54" transform="translate(187.96 277.75)" fill="#fff"/>
    </g>
    <g id="Group_33" data-name="Group 33">
      <ellipse id="Ellipse_83" data-name="Ellipse 83" cx="29.6" cy="27.34" rx="29.6" ry="27.34" transform="translate(262.7 247.44)" fill="#fff"/>
      <ellipse id="Ellipse_84" data-name="Ellipse 84" cx="23.49" cy="21.7" rx="23.49" ry="21.7" transform="translate(268.81 253.08)"/>
      <ellipse id="Ellipse_85" data-name="Ellipse 85" cx="10.73" cy="9.91" rx="10.73" ry="9.91" transform="translate(274.64 256.61)" fill="#fff"/>
      <ellipse id="Ellipse_86" data-name="Ellipse 86" cx="10.73" cy="6.54" rx="10.73" ry="6.54" transform="translate(296.17 277.75)" fill="#fff"/>
    </g>
    <path id="Path_64" data-name="Path 64" d="M281.3,364.46a2.25,2.25,0,0,0-2.6-.58c-18.75,7.92-33.87-1.24-37.54-3.81V344.18c14.9-6.88,31.27-14.36,31.27-14.37a1.28,1.28,0,0,0,.66-2,1.94,1.94,0,0,0-.88-.59l.27-.13H205.71l.27.13a1.85,1.85,0,0,0-.87.59,1.28,1.28,0,0,0,.66,2s16.36,7.49,31.26,14.37v15.89c-3.67,2.57-18.78,11.73-37.53,3.81a2.26,2.26,0,0,0-2.61.58,1.31,1.31,0,0,0,.75,2,43.059,43.059,0,0,0,16.86,3.48,46.36,46.36,0,0,0,24.6-7.37,46.32,46.32,0,0,0,24.59,7.37,43,43,0,0,0,16.86-3.48,1.3,1.3,0,0,0,.75-2Z" fill="#936406"/>
    <ellipse id="Ellipse_87" data-name="Ellipse 87" cx="24.45" cy="9.37" rx="24.45" ry="9.37" transform="translate(158.582 227.332) rotate(-7.8)" fill="#936406"/>
    <ellipse id="Ellipse_88" data-name="Ellipse 88" cx="9.37" cy="24.45" rx="9.37" ry="24.45" transform="translate(266.788 239.23) rotate(-82.2)" fill="#936406"/>
    <path id="Path_65" data-name="Path 65" d="M95.26,238.77a60.66,60.66,0,0,1-61-61.84,65.35,65.35,0,0,1,64.92-64.12,60.69,60.69,0,0,1,43.27,17.77c24.18,24.17,23.56,64.12-1.37,89.06a64.41,64.41,0,0,1-45.82,19.13Z" fill="#ff92c4"/>
    <path id="Path_66" data-name="Path 66" d="M379.05,238.79a60.67,60.67,0,0,1-61-61.85A65.34,65.34,0,0,1,383,112.83a60.76,60.76,0,0,1,43.27,17.76c24.17,24.18,23.56,64.13-1.38,89.06a64.42,64.42,0,0,1-45.84,19.14Z" fill="#ff92c4"/>
  </g>
</svg>
