<svg xmlns="http://www.w3.org/2000/svg" viewBox="0 0 500 500">
  <defs>
    <style>
      .cls-1 {
        fill: #ffce55;
        stroke: #a88026;
        stroke-miterlimit: 10;
        stroke-width: 2.07px;
      }

      .cls-2 {
        fill: #fff;
      }

      .cls-3 {
        fill: #936406;
      }

      .cls-4 {
        fill: #ff92c4;
      }
    </style>
  </defs>
  <g id="Mouse">
    <path class="cls-1" d="M433.8,228.62c29.92-29.93,30.54-77.83,1.37-107s-77.07-28.55-107,1.38a77.43,77.43,0,0,0-22.62,49,161.83,161.83,0,0,0-132.74-.9,73.38,73.38,0,0,0-21.43-49.52C122.22,92.44,74.32,93.06,44.4,123S13.86,200.81,43,230a73.6,73.6,0,0,0,54.13,21.44,121.7,121.7,0,0,0-6.54,39.41c0,73.72,66.07,133.49,147.58,133.49s147.59-59.77,147.59-133.49a121.45,121.45,0,0,0-6.53-39.37A77.39,77.39,0,0,0,433.8,228.62Z"/>
    <g>
      <ellipse class="cls-2" cx="184.09" cy="274.78" rx="29.6" ry="27.34"/>
      <ellipse cx="184.09" cy="274.78" rx="23.49" ry="21.7"/>
      <ellipse class="cls-2" cx="177.17" cy="266.52" rx="10.73" ry="9.91"/>
      <ellipse class="cls-2" cx="198.69" cy="284.29" rx="10.73" ry="6.54"/>
    </g>
    <g>
      <ellipse class="cls-2" cx="292.3" cy="274.78" rx="29.6" ry="27.34"/>
      <ellipse cx="292.3" cy="274.78" rx="23.49" ry="21.7"/>
      <ellipse class="cls-2" cx="285.37" cy="266.52" rx="10.73" ry="9.91"/>
      <ellipse class="cls-2" cx="306.9" cy="284.29" rx="10.73" ry="6.54"/>
    </g>
    <path class="cls-3" d="M281.3,364.46a2.25,2.25,0,0,0-2.6-.58c-18.75,7.92-33.87-1.24-37.54-3.81V344.18c14.9-6.88,31.27-14.36,31.27-14.37a1.28,1.28,0,0,0,.66-2,1.94,1.94,0,0,0-.88-.59l.27-.13H205.71l.27.13a1.85,1.85,0,0,0-.87.59,1.28,1.28,0,0,0,.66,2s16.36,7.49,31.26,14.37v15.89c-3.67,2.57-18.78,11.73-37.53,3.81a2.26,2.26,0,0,0-2.61.58,1.31,1.31,0,0,0,.75,2,43.06,43.06,0,0,0,16.86,3.48,46.36,46.36,0,0,0,24.6-7.37,46.32,46.32,0,0,0,24.59,7.37,43,43,0,0,0,16.86-3.48A1.3,1.3,0,0,0,281.3,364.46Z"/>
    <ellipse class="cls-3" cx="184.09" cy="233.28" rx="24.45" ry="9.37" transform="translate(-29.97 27.16) rotate(-7.8)"/>
    <ellipse class="cls-3" cx="292.3" cy="233.28" rx="9.37" ry="24.45" transform="translate(21.49 491.2) rotate(-82.2)"/>
    <path class="cls-4" d="M95.26,238.77a60.66,60.66,0,0,1-61-61.84,65.35,65.35,0,0,1,64.92-64.12,60.69,60.69,0,0,1,43.27,17.77c24.18,24.17,23.56,64.12-1.37,89.06A64.41,64.41,0,0,1,95.26,238.77Z"/>
    <path class="cls-4" d="M379.05,238.79a60.67,60.67,0,0,1-61-61.85A65.34,65.34,0,0,1,383,112.83a60.76,60.76,0,0,1,43.27,17.76c24.17,24.18,23.56,64.13-1.38,89.06A64.42,64.42,0,0,1,379.05,238.79Z"/>
  </g>
</svg>
