<svg xmlns="http://www.w3.org/2000/svg" viewBox="0 0 500 500">
  <defs>
    <style>
      .cls-1 {
        fill: #8c8c8c;
      }

      .cls-1, .cls-2, .cls-3 {
        stroke: #000;
      }

      .cls-1, .cls-2, .cls-3, .cls-4 {
        stroke-miterlimit: 10;
        stroke-width: 2.83px;
      }

      .cls-2, .cls-4, .cls-5 {
        fill: #fff;
      }

      .cls-3, .cls-6 {
        fill: #383838;
      }

      .cls-4 {
        stroke: #383838;
      }
    </style>
  </defs>
  <g id="Raccoon">
    <path class="cls-1" d="M411.73,221.63C409.61,197,384.35,85.76,259.63,89c-116.22-3.22-150,108-152.1,132.65s-69,78.6-69,78.6,57-5.37,85.2,24.2,135.9,25.34,135.9,25.34,107.73,4.24,135.9-25.34,85.2-24.2,85.2-24.2S413.84,246.27,411.73,221.63Z"/>
    <path class="cls-2" d="M435.5,258.42S390,245.6,387.76,225.68,344.09,93.39,259.63,162.56c-84.46-69.17-125.86,43.21-128.13,63.12s-47.74,32.74-47.74,32.74L38.53,300.23s56.69-6,85.2,24.2,135.9,26,135.9,26,107.39,4.23,135.9-26,85.2-24.2,85.2-24.2Z"/>
    <path class="cls-3" d="M259.63,89c-57,2.27-82.21,21.6-93,31.36C233,125.62,246,229,246,229h28.13s12-103.24,82.79-108.52C345.44,110.75,317.46,90,259.63,89Z"/>
    <path d="M83.76,258.42s92.07-20.81,125.47-10.08c11.28-11.94,30.47-16.81,30.47-16.81s-11.25-80.18-44.42-78.48-52.14,60.44-52.14,60.44S136.7,249,83.76,258.42Z"/>
    <path d="M436.82,258.42s-92.08-20.81-125.47-10.08c-11.29-11.94-30.48-16.81-30.48-16.81s11.25-80.18,44.42-78.48,52.14,60.44,52.14,60.44S383.87,249,436.82,258.42Z"/>
    <ellipse class="cls-4" cx="259.63" cy="280.06" rx="64.35" ry="51.02"/>
    <g>
      <ellipse class="cls-5" cx="191.57" cy="205.72" rx="33.35" ry="30.81"/>
      <ellipse cx="191.57" cy="205.72" rx="26.47" ry="24.45"/>
      <ellipse class="cls-5" cx="183.76" cy="196.4" rx="12.09" ry="11.17"/>
      <ellipse class="cls-5" cx="208.02" cy="216.43" rx="12.09" ry="7.37"/>
    </g>
    <g>
      <ellipse class="cls-5" cx="330.46" cy="205.72" rx="33.35" ry="30.81"/>
      <ellipse cx="330.46" cy="205.72" rx="26.47" ry="24.45"/>
      <ellipse class="cls-5" cx="322.66" cy="196.4" rx="12.09" ry="11.17"/>
      <ellipse class="cls-5" cx="346.92" cy="216.43" rx="12.09" ry="7.37"/>
    </g>
    <path d="M303.63,290.13a1.43,1.43,0,0,0-1.93.57c-6.61,12.12-13.79,18.42-21.33,18.72-10,.38-17.9-10.07-19.32-12.09V286.07c4.18-4.68,15-13.38,39.33-16.24,10-3.38-10.23-25.3-41.17-17.11-30.94-8.19-51.14,13.73-41.17,17.11,26.16,3.07,36.72,12.92,40.17,17.23v10.27c-1.42,2-9.3,12.46-19.32,12.09-7.54-.3-14.72-6.6-21.33-18.72a1.42,1.42,0,1,0-2.49,1.36c7.13,13.07,15.11,19.86,23.72,20.19l.67,0c9.83,0,17.36-8.42,20.17-12.08,2.81,3.66,10.34,12.08,20.17,12.08l.67,0c8.61-.33,16.59-7.12,23.72-20.19A1.43,1.43,0,0,0,303.63,290.13Z"/>
    <path class="cls-1" d="M162.72,121.53S154.18,102.59,77.65,89c-2.84,70,35.13,109.79,35.13,109.79S134.53,148.13,162.72,121.53Z"/>
    <path class="cls-6" d="M83.76,99.76,135.47,146s-21.32,33.27-23,41.95C112.51,187.91,83.91,154.18,83.76,99.76Z"/>
    <path class="cls-1" d="M359.55,120.59s9-18.74,85.81-30.55C446.56,160.11,407.67,199,407.67,199S387.11,147.84,359.55,120.59Z"/>
    <path class="cls-6" d="M439,100.66l-52.78,45s20.54,33.76,22,42.48C408.19,188.12,437.57,155.07,439,100.66Z"/>
  </g>
</svg>
