<svg xmlns="http://www.w3.org/2000/svg" xmlns:xlink="http://www.w3.org/1999/xlink" width="66.316" height="76.879" viewBox="0 0 66.316 76.879">
  <defs>
    <filter id="Path_23" x="0" y="2.365" width="66.316" height="72.15" filterUnits="userSpaceOnUse">
      <feOffset dx="5" dy="5" input="SourceAlpha"/>
      <feGaussianBlur stdDeviation="3" result="blur"/>
      <feFlood flood-opacity="0.161"/>
      <feComposite operator="in" in2="blur"/>
      <feComposite in="SourceGraphic"/>
    </filter>
    <filter id="Path_22" x="2.635" y="0" width="61.046" height="76.879" filterUnits="userSpaceOnUse">
      <feOffset dx="5" dy="5" input="SourceAlpha"/>
      <feGaussianBlur stdDeviation="3" result="blur-2"/>
      <feFlood flood-opacity="0.161"/>
      <feComposite operator="in" in2="blur-2"/>
      <feComposite in="SourceGraphic"/>
    </filter>
  </defs>
  <g id="Group_7" data-name="Group 7" transform="translate(-2010.842 -2985.56)">
    <g id="X" transform="translate(2014.71 2989.091)">
      <g transform="matrix(1, 0, 0, 1, -3.87, -3.53)" filter="url(#Path_23)">
        <path id="Path_23-2" data-name="Path 23" d="M5.915-.037a6.213,6.213,0,0,1,6.111,6.083l.637,48.024a5.828,5.828,0,0,1-5.951,5.923A6.213,6.213,0,0,1,.6,53.91L-.037,5.886A5.828,5.828,0,0,1,5.915-.037Z" transform="translate(4.05 14.53) rotate(-40)"/>
      </g>
      <g transform="matrix(1, 0, 0, 1, -3.87, -3.53)" filter="url(#Path_22)">
        <path id="Path_22-2" data-name="Path 22" d="M5.452.1a6.72,6.72,0,0,1,6.005,6.354l2.627,48.208a5.125,5.125,0,0,1-5.348,5.7,6.72,6.72,0,0,1-6.005-6.354L.1,5.8A5.125,5.125,0,0,1,5.452.1Z" transform="translate(37.65 3.87) rotate(31)"/>
      </g>
    </g>
  </g>
</svg>
