<svg id="START" xmlns="http://www.w3.org/2000/svg" xmlns:xlink="http://www.w3.org/1999/xlink" width="295.791" height="112.821" viewBox="0 0 295.791 112.821">
  <defs>
    <filter id="Path_14" x="0" y="0" width="295.791" height="112.821" filterUnits="userSpaceOnUse">
      <feOffset dx="10" dy="10" input="SourceAlpha"/>
      <feGaussianBlur stdDeviation="3" result="blur"/>
      <feFlood flood-opacity="0.161"/>
      <feComposite operator="in" in2="blur"/>
      <feComposite in="SourceGraphic"/>
    </filter>
  </defs>
  <g id="Group_1" data-name="Group 1" transform="translate(101.838 -326.403)">
    <g transform="matrix(1, 0, 0, 1, -101.84, 326.4)" filter="url(#Path_14)">
      <g id="Path_14-2" data-name="Path 14" fill="#089f37">
        <path d="M 259.3583984375 91.32093811035156 L 17.43227767944336 91.32093811035156 C 13.54404735565186 91.32093811035156 9.85597038269043 89.41413116455078 7.047316551208496 85.9517822265625 C 5.631701469421387 84.20667266845703 4.517124652862549 82.16539764404297 3.73462438583374 79.88466644287109 C 2.915393590927124 77.49701690673828 2.500009059906006 74.95566558837891 2.500009059906006 72.33124542236328 L 2.500009059906006 21.48970794677734 C 2.500009059906006 18.86528396606445 2.915393590927124 16.32393836975098 3.73462438583374 13.93628406524658 C 4.517124652862549 11.65555381774902 5.631701469421387 9.614284515380859 7.047316551208496 7.869168758392334 C 9.85597038269043 4.406822681427002 13.54404735565186 2.500015258789062 17.43227767944336 2.500015258789062 L 259.3583984375 2.500015258789062 C 263.2466125488281 2.500015258789062 266.9347534179688 4.406822681427002 269.7433471679688 7.869168758392334 C 271.1589965820312 9.614284515380859 272.2735595703125 11.65555381774902 273.0560913085938 13.93628406524658 C 273.8753051757812 16.32393836975098 274.2907104492188 18.86528396606445 274.2907104492188 21.48970794677734 L 274.2907104492188 72.33124542236328 C 274.2907104492188 74.95566558837891 273.8753051757812 77.49701690673828 273.0560913085938 79.88466644287109 C 272.2735595703125 82.16539764404297 271.1589965820312 84.20667266845703 269.7433471679688 85.9517822265625 C 266.9347534179688 89.41413116455078 263.2466125488281 91.32093811035156 259.3583984375 91.32093811035156 Z" stroke="none"/>
        <path d="M 17.43228149414062 5.000015258789062 C 14.31216430664062 5.000015258789062 11.3135986328125 6.578285217285156 8.988861083984375 9.444091796875 C 7.758544921875 10.96078491210938 6.786346435546875 12.74513244628906 6.099273681640625 14.74762725830078 C 5.369842529296875 16.87358856201172 5 19.14193725585938 5 21.48970794677734 L 5 72.33124542236328 C 5 74.67901611328125 5.369842529296875 76.94735717773438 6.099273681640625 79.07332611083984 C 6.786346435546875 81.07582092285156 7.758544921875 82.86016845703125 8.988861083984375 84.37686157226562 C 11.3135986328125 87.24266815185547 14.31216430664062 88.82093811035156 17.43228149414062 88.82093811035156 L 259.3583984375 88.82093811035156 C 262.478515625 88.82093811035156 265.4770812988281 87.24266815185547 267.8018493652344 84.37686157226562 C 269.0321655273438 82.86016845703125 270.0043640136719 81.07582092285156 270.6914367675781 79.07332611083984 C 271.4208679199219 76.94735717773438 271.7907104492188 74.67897796630859 271.7907104492188 72.33124542236328 L 271.7907104492188 21.48970794677734 C 271.7907104492188 19.14197540283203 271.4208679199219 16.87358856201172 270.6914367675781 14.74762725830078 C 270.0043640136719 12.74513244628906 269.0321655273438 10.96078491210938 267.8018493652344 9.444091796875 C 265.4770812988281 6.578285217285156 262.478515625 5.000015258789062 259.3583984375 5.000015258789062 L 17.43228149414062 5.000015258789062 M 17.43228149414062 1.52587890625e-05 L 259.3583984375 1.52587890625e-05 C 268.9859619140625 1.52587890625e-05 276.7907104492188 9.621284484863281 276.7907104492188 21.48970794677734 L 276.7907104492188 72.33124542236328 C 276.7907104492188 84.19966888427734 268.9859619140625 93.82093811035156 259.3583984375 93.82093811035156 L 17.43228149414062 93.82093811035156 C 7.8046875 93.82093811035156 0 84.19966888427734 0 72.33124542236328 L 0 21.48970794677734 C 0 9.621284484863281 7.8046875 1.52587890625e-05 17.43228149414062 1.52587890625e-05 Z" stroke="none" fill="#044d1b"/>
      </g>
    </g>
  </g>
  <text id="START-2" data-name="START" transform="translate(138.792 64.139)" fill="#fff" font-size="45" font-family="Futura-Bold, Futura" font-weight="700"><tspan x="-71.91" y="0">START</tspan></text>
</svg>
