<svg xmlns="http://www.w3.org/2000/svg" xmlns:xlink="http://www.w3.org/1999/xlink" width="158" height="89" viewBox="0 0 158 89">
  <defs>
    <filter id="Path_15" x="0" y="0" width="158" height="89" filterUnits="userSpaceOnUse">
      <feOffset dx="10" dy="10" input="SourceAlpha"/>
      <feGaussianBlur stdDeviation="5" result="blur"/>
      <feFlood flood-opacity="0.161"/>
      <feComposite operator="in" in2="blur"/>
      <feComposite in="SourceGraphic"/>
    </filter>
  </defs>
  <g id="ARROW" transform="translate(5 5)">
    <g transform="matrix(1, 0, 0, 1, -5, -5)" filter="url(#Path_15)">
      <g id="Path_15-2" data-name="Path 15" transform="translate(5 5)" fill="#8f1fff">
        <path d="M 109 58.5 L 19 58.5 C 16.50230026245117 58.5 14.07956695556641 58.01093292236328 11.79911708831787 57.04638290405273 C 9.596199989318848 56.11463165283203 7.617683410644531 54.7806510925293 5.918516635894775 53.08148193359375 C 4.21934986114502 51.38231658935547 2.885366678237915 49.40380096435547 1.953616619110107 47.20088195800781 C 0.9890666604042053 44.92043304443359 0.5 42.49769973754883 0.5 40 L 0.5 19 C 0.5 16.50230026245117 0.9890666604042053 14.07956695556641 1.953616619110107 11.79911708831787 C 2.885366678237915 9.596199989318848 4.21934986114502 7.617683410644531 5.918516635894775 5.918516635894775 C 7.617683410644531 4.21934986114502 9.596199989318848 2.885366678237915 11.79911708831787 1.953616619110107 C 14.07956695556641 0.9890666604042053 16.50230026245117 0.5 19 0.5 L 109 0.5 C 111.4977035522461 0.5 113.9204330444336 0.9890666604042053 116.2008819580078 1.953616619110107 C 118.4038009643555 2.885366678237915 120.3823165893555 4.21934986114502 122.0814819335938 5.918516635894775 C 123.780647277832 7.617683410644531 125.114631652832 9.596199989318848 126.04638671875 11.79911708831787 C 127.0109329223633 14.07956695556641 127.5 16.50230026245117 127.5 19 L 127.5 40 C 127.5 42.49769973754883 127.0109329223633 44.92043304443359 126.04638671875 47.20088195800781 C 125.114631652832 49.40380096435547 123.780647277832 51.38231658935547 122.0814819335938 53.08148193359375 C 120.3823165893555 54.7806510925293 118.4038009643555 56.11463165283203 116.2008819580078 57.04638290405273 C 113.9204330444336 58.01093292236328 111.4977035522461 58.5 109 58.5 Z" stroke="none"/>
        <path d="M 19 1 C 14.1920166015625 1 9.671836853027344 2.872333526611328 6.272087097167969 6.272083282470703 C 2.872329711914062 9.671833038330078 1 14.1920166015625 1 19 L 1 40 C 1 44.8079833984375 2.872329711914062 49.32816696166992 6.272087097167969 52.7279167175293 C 9.671836853027344 56.12766647338867 14.1920166015625 58 19 58 L 109 58 C 113.8079681396484 58 118.3281707763672 56.12766647338867 121.7279205322266 52.7279167175293 C 125.1276702880859 49.32816696166992 127 44.8079833984375 127 40 L 127 19 C 127 14.1920166015625 125.1276702880859 9.671833038330078 121.7279205322266 6.272083282470703 C 118.3281707763672 2.872333526611328 113.8079681396484 1 109 1 L 19 1 M 19 0 L 109 0 C 119.4934005737305 0 128 8.506584167480469 128 19 L 128 40 C 128 50.49341583251953 119.4934005737305 59 109 59 L 19 59 C 8.506584167480469 59 0 50.49341583251953 0 40 L 0 19 C 0 8.506584167480469 8.506584167480469 0 19 0 Z" stroke="none" fill="#707070"/>
      </g>
    </g>
    <g id="Group_2" data-name="Group 2" transform="translate(15 6.633)">
      <rect id="Rectangle_8" data-name="Rectangle 8" width="76" height="23" transform="translate(0 11.367)" fill="#fff"/>
      <path id="Polygon_1" data-name="Polygon 1" d="M22.934,0,45.867,42H0Z" transform="translate(104.314) rotate(90)" fill="#fff"/>
    </g>
  </g>
</svg>
